<?xml version="1.0" encoding="UTF-8"?>
<svg id="Layer_2" data-name="Layer 2" xmlns="http://www.w3.org/2000/svg" viewBox="0 0 699.97 242.67">
  <defs>
    <style>
      .cls-1 {
        fill: #fff;
      }

      .cls-2, .cls-3 {
        fill: #fc6a03;
      }

      .cls-3 {
        opacity: .1;
      }
    </style>
  </defs>
  <path class="cls-3" d="M426.17,107.54c-7.99,18.2-19.13,33.41-31.72,44.48-12.02,10.6-25.39,17.4-38.65,19.44,7.63,5.61,16.97,9.56,27.43,11.75-8.15,9.16-20.03,14.93-33.25,14.93-21.47,0-39.4-15.22-43.58-35.44-.61-2.92-.93-5.97-.93-9.07,0-19.44,12.47-35.98,29.85-42.03,4.59-1.6,9.52-2.47,14.66-2.47,1.05,0,2.1.03,3.13.12,10.82.73,20.6,5.37,27.91,12.52h.02c9.59-10.46,15.97-25.15,18.5-42.09,3.57-23.93-.52-52.36-13.94-79.68-8.89,27.63-24.58,50.08-42.65,64.88-9.94,8.16-20.6,13.99-31.26,17.07-1.98-1.86-4.03-3.67-6.18-5.46-7.72-6.46-16.4-12.37-25.96-17.46.34,20.81-3.48,40.24-10.22,56.88-.03.02-.03.04-.03.07-.79,1.66-1.51,3.36-2.19,5.08-.03.04-.05.09-.06.13-3.94,10.06-6.1,21-6.1,32.44,0,3.91.25,7.77.75,11.53,5.65,43.73,43.02,77.5,88.28,77.5,39.55,0,73.07-25.78,84.67-61.45,2.83-8.68,4.36-17.96,4.36-27.58,0-16.86-4.69-32.65-12.85-46.1Z"/>
  <g>
    <g>
      <path class="cls-1" d="M240.81,178.35c.72,0,2.36.04,3.4,1.02.86.82.96,1.94.96,2.52,0,.52-.08,1.12-.44,1.7-.34.56-.8.84-1.12.98.64.1,1.36.42,1.84.9.44.44.86,1.2.86,2.38,0,1.34-.52,2.18-1.04,2.7-1.1,1.06-2.7,1.14-3.52,1.14h-5.02v-13.34h4.08ZM239.77,183.77h.5c.42,0,1.12-.06,1.56-.38.28-.2.54-.6.54-1.18s-.28-.94-.52-1.12c-.44-.34-1.04-.34-1.6-.34h-.48v3.02ZM239.77,189.29h.74c.78,0,1.72-.02,2.28-.54.28-.26.44-.64.44-1.12,0-.54-.22-.9-.42-1.08-.54-.5-1.58-.5-2.2-.5h-.84v3.24Z"/>
      <path class="cls-1" d="M250.93,185.47l-4.78-7.12h3.64l2.68,4.14,2.68-4.14h3.64l-4.78,7.12v6.22h-3.08v-6.22Z"/>
      <path class="cls-2" d="M271.33,184.41h6.62v.14c0,1.62-.58,4.08-2.06,5.62s-3.18,1.82-4.76,1.82-3.32-.26-4.88-1.86c-.78-.8-1.96-2.42-1.96-5.08,0-2.18.8-3.92,1.92-5.06,1.64-1.7,3.66-1.94,5.24-1.94,1.1,0,2.5.18,3.74,1,.9.6,1.68,1.54,2.16,2.38l-2.78,1.5c-.26-.52-.66-1.06-1.18-1.44-.6-.44-1.28-.64-2.04-.64-1.22,0-2.12.4-2.76,1.08-.74.78-1.14,1.92-1.14,3.16,0,1.52.56,2.5,1.12,3.06.78.8,1.68,1.04,2.7,1.04,1.32,0,2.02-.46,2.32-.72.1-.08.7-.6.96-1.58h-3.22v-2.48Z"/>
      <path class="cls-2" d="M291.54,186.25c0,1.28-.16,2.86-1.48,4.22-1.28,1.32-2.76,1.52-4.16,1.52s-2.88-.2-4.16-1.52c-1.32-1.36-1.48-2.94-1.48-4.22v-7.9h3.08v7.82c0,.58.04,1.56.7,2.24.54.58,1.28.7,1.86.7s1.32-.12,1.86-.7c.66-.68.7-1.66.7-2.24v-7.82h3.08v7.9Z"/>
      <path class="cls-2" d="M297.59,178.35v13.34h-3.08v-13.34h3.08Z"/>
      <path class="cls-2" d="M303.65,178.35v10.74h4.14v2.6h-7.22v-13.34h3.08Z"/>
      <path class="cls-2" d="M313.75,178.35c1.76,0,3.62.26,5.26,1.84,1.18,1.14,1.92,2.7,1.92,4.78s-.72,3.62-1.82,4.72c-1.84,1.86-4.14,2-5.26,2h-4.32v-13.34h4.22ZM312.61,189.09h.82c.64,0,2.04-.06,3.04-.9.72-.6,1.3-1.74,1.3-3.22s-.58-2.36-1.1-2.88c-1-1-2.3-1.14-3.24-1.14h-.82v8.14Z"/>
      <path class="cls-2" d="M330.63,180.95h-4.32v2.58h4v2.6h-4v5.56h-3.08v-13.34h7.4v2.6Z"/>
      <path class="cls-2" d="M344.71,179.99c1.26,1.22,2.08,2.98,2.08,5.04,0,1.78-.64,3.6-2.08,5-1.24,1.2-2.92,1.96-5.16,1.96-2.5,0-4.2-1-5.2-1.96-1.28-1.2-2.08-3-2.08-4.96s.86-3.86,2.06-5.06c.9-.9,2.56-1.96,5.22-1.96,2.08,0,3.82.64,5.16,1.94ZM336.61,182.03c-.58.56-1.18,1.54-1.18,3.02,0,1.22.4,2.2,1.22,3,.86.82,1.82,1.1,2.86,1.1,1.36,0,2.32-.5,2.96-1.14.52-.5,1.16-1.44,1.16-2.98,0-1.38-.56-2.4-1.16-3-.66-.64-1.72-1.14-2.94-1.14s-2.2.42-2.92,1.14Z"/>
      <path class="cls-2" d="M353.77,178.35c1.7,0,2.76.56,3.4,1.16.56.54,1.16,1.5,1.16,2.98,0,.84-.18,1.88-1.04,2.72-.46.44-1.12.84-1.86,1.02l4.1,5.46h-3.76l-3.6-5.26v5.26h-3.08v-13.34h4.68ZM352.17,184.41h.7c.56,0,1.32-.06,1.84-.58.22-.22.5-.64.5-1.3,0-.76-.36-1.16-.62-1.36-.5-.38-1.3-.42-1.7-.42h-.72v3.66Z"/>
      <path class="cls-2" d="M367.65,184.41h6.62v.14c0,1.62-.58,4.08-2.06,5.62s-3.18,1.82-4.76,1.82-3.32-.26-4.88-1.86c-.78-.8-1.96-2.42-1.96-5.08,0-2.18.8-3.92,1.92-5.06,1.64-1.7,3.66-1.94,5.24-1.94,1.1,0,2.5.18,3.74,1,.9.6,1.68,1.54,2.16,2.38l-2.78,1.5c-.26-.52-.66-1.06-1.18-1.44-.6-.44-1.28-.64-2.04-.64-1.22,0-2.12.4-2.76,1.08-.74.78-1.14,1.92-1.14,3.16,0,1.52.56,2.5,1.12,3.06.78.8,1.68,1.04,2.7,1.04,1.32,0,2.02-.46,2.32-.72.1-.08.7-.6.96-1.58h-3.22v-2.48Z"/>
      <path class="cls-2" d="M379.71,178.35v13.34h-3.08v-13.34h3.08Z"/>
      <path class="cls-2" d="M382.69,191.7v-13.34h2.68l7.24,8.6v-8.6h3.08v13.34h-2.68l-7.24-8.64v8.64h-3.08Z"/>
      <path class="cls-2" d="M405.03,184.41h6.62v.14c0,1.62-.58,4.08-2.06,5.62s-3.18,1.82-4.76,1.82-3.32-.26-4.88-1.86c-.78-.8-1.96-2.42-1.96-5.08,0-2.18.8-3.92,1.92-5.06,1.64-1.7,3.66-1.94,5.24-1.94,1.1,0,2.5.18,3.74,1,.9.6,1.68,1.54,2.16,2.38l-2.78,1.5c-.26-.52-.66-1.06-1.18-1.44-.6-.44-1.28-.64-2.04-.64-1.22,0-2.12.4-2.76,1.08-.74.78-1.14,1.92-1.14,3.16,0,1.52.56,2.5,1.12,3.06.78.8,1.68,1.04,2.7,1.04,1.32,0,2.02-.46,2.32-.72.1-.08.7-.6.96-1.58h-3.22v-2.48Z"/>
      <path class="cls-2" d="M415.27,188.38c1.02,0,1.82.8,1.82,1.82s-.8,1.82-1.82,1.82-1.82-.8-1.82-1.82.8-1.82,1.82-1.82Z"/>
      <path class="cls-2" d="M429.15,191.28c-1.18.6-2.14.72-2.94.72-2.46,0-4.12-.84-5.24-1.94-1.2-1.16-2.08-2.92-2.08-5.06s.88-3.86,2.08-5.02c1.18-1.14,2.9-1.92,4.98-1.92.88,0,1.9.18,3.2.74v3.56c-.68-.72-1.7-1.42-3.12-1.42-1.12,0-2.02.36-2.72,1.04-.74.72-1.26,1.8-1.26,3.08,0,1.38.56,2.36,1.16,2.94.28.28,1.24,1.12,2.88,1.12.8,0,1.88-.22,3.06-1.38v3.54Z"/>
      <path class="cls-2" d="M443.43,179.99c1.26,1.22,2.08,2.98,2.08,5.04,0,1.78-.64,3.6-2.08,5-1.24,1.2-2.92,1.96-5.16,1.96-2.5,0-4.2-1-5.2-1.96-1.28-1.2-2.08-3-2.08-4.96s.86-3.86,2.06-5.06c.9-.9,2.56-1.96,5.22-1.96,2.08,0,3.82.64,5.16,1.94ZM435.33,182.03c-.58.56-1.18,1.54-1.18,3.02,0,1.22.4,2.2,1.22,3,.86.82,1.82,1.1,2.86,1.1,1.36,0,2.32-.5,2.96-1.14.52-.5,1.16-1.44,1.16-2.98,0-1.38-.56-2.4-1.16-3-.66-.64-1.72-1.14-2.94-1.14s-2.2.42-2.92,1.14Z"/>
      <path class="cls-2" d="M447.19,191.7l2.14-13.34h2.56l3.32,7.98,3.32-7.98h2.56l2.14,13.34h-3.08l-1.06-7.96-3.34,7.96h-1.08l-3.34-7.96-1.06,7.96h-3.08Z"/>
    </g>
    <g>
      <path class="cls-1" d="M23.04,115.52v41.37h-11.86v-41.37H0v-10.02h34.21v10.02h-11.17Z"/>
      <path class="cls-1" d="M52.31,125.08h20.49v-19.57h11.86v51.39h-11.86v-21.8h-20.49v21.8h-11.86v-51.39h11.86v19.57Z"/>
      <path class="cls-1" d="M124.97,115.52h-17.18v9.94h16.33v10.01h-16.33v11.4h17.18v10.02h-29.04v-51.39h29.04v10.02Z"/>
      <path class="cls-1" d="M170.58,115.52v41.37h-11.86v-41.37h-11.17v-10.02h34.21v10.02h-11.17Z"/>
      <path class="cls-1" d="M231.98,111.83c4.85,4.7,8.01,11.48,8.01,19.41,0,6.86-2.47,13.87-8.01,19.26-4.78,4.62-11.25,7.55-19.88,7.55-9.63,0-16.18-3.85-20.03-7.55-4.93-4.62-8.01-11.56-8.01-19.11s3.31-14.87,7.94-19.49c3.47-3.47,9.86-7.55,20.11-7.55,8.01,0,14.71,2.46,19.88,7.47ZM200.78,119.68c-2.23,2.16-4.55,5.93-4.55,11.63,0,4.7,1.54,8.47,4.7,11.56,3.31,3.16,7.01,4.24,11.02,4.24,5.24,0,8.94-1.93,11.4-4.39,2-1.93,4.47-5.55,4.47-11.48,0-5.32-2.16-9.24-4.47-11.56-2.54-2.47-6.63-4.39-11.33-4.39s-8.47,1.62-11.25,4.39Z"/>
      <path class="cls-1" d="M294.39,111.83c4.85,4.7,8.01,11.48,8.01,19.41,0,6.86-2.47,13.87-8.01,19.26-4.78,4.62-11.25,7.55-19.88,7.55-9.63,0-16.18-3.85-20.03-7.55-4.93-4.62-8.01-11.56-8.01-19.11s3.31-14.87,7.94-19.49c3.47-3.47,9.86-7.55,20.11-7.55,8.01,0,14.71,2.46,19.88,7.47ZM263.19,119.68c-2.23,2.16-4.55,5.93-4.55,11.63,0,4.7,1.54,8.47,4.7,11.56,3.31,3.16,7.01,4.24,11.02,4.24,5.24,0,8.94-1.93,11.4-4.39,2-1.93,4.47-5.55,4.47-11.48,0-5.32-2.16-9.24-4.47-11.56-2.54-2.47-6.63-4.39-11.33-4.39s-8.47,1.62-11.25,4.39Z"/>
      <path class="cls-1" d="M323.13,105.51v41.37h15.95v10.02h-27.81v-51.39h11.86Z"/>
      <path class="cls-1" d="M362.43,115.52v41.37h-11.86v-41.37h-11.17v-10.02h34.21v10.02h-11.17Z"/>
      <path class="cls-1" d="M391.94,105.51v51.39h-11.86v-51.39h11.86Z"/>
      <path class="cls-1" d="M421.52,105.51c4.47,0,9.4.62,13.48,4.24,4.39,3.85,5.01,8.94,5.01,12.48,0,6.47-2.46,10.09-4.39,12.1-4.08,4.16-9.48,4.55-13.1,4.55h-7.24v18.03h-11.86v-51.39h18.1ZM415.28,129.16h4.24c1.62,0,4.47-.08,6.39-1.93,1.08-1.08,1.93-2.85,1.93-5.08s-.77-3.93-1.93-5.01c-1.77-1.69-4.31-1.93-6.63-1.93h-4.01v13.94Z"/>
      <path class="cls-1" d="M493.94,115.52h-16.64v9.94h15.41v10.01h-15.41v21.42h-11.86v-51.39h28.51v10.02Z"/>
      <path class="cls-1" d="M548.18,111.83c4.85,4.7,8.01,11.48,8.01,19.41,0,6.86-2.47,13.87-8.01,19.26-4.78,4.62-11.25,7.55-19.88,7.55-9.63,0-16.18-3.85-20.03-7.55-4.93-4.62-8.01-11.56-8.01-19.11s3.31-14.87,7.94-19.49c3.47-3.47,9.86-7.55,20.11-7.55,8.01,0,14.71,2.46,19.88,7.47ZM516.98,119.68c-2.23,2.16-4.55,5.93-4.55,11.63,0,4.7,1.54,8.47,4.7,11.56,3.31,3.16,7.01,4.24,11.02,4.24,5.24,0,8.94-1.93,11.4-4.39,2-1.93,4.47-5.55,4.47-11.48,0-5.32-2.16-9.24-4.47-11.56-2.54-2.47-6.63-4.39-11.33-4.39s-8.47,1.62-11.25,4.39Z"/>
      <path class="cls-1" d="M583.09,105.51c6.55,0,10.63,2.16,13.1,4.47,2.16,2.08,4.47,5.78,4.47,11.48,0,3.24-.69,7.24-4.01,10.48-1.77,1.7-4.31,3.24-7.17,3.93l15.79,21.03h-14.48l-13.87-20.26v20.26h-11.86v-51.39h18.03ZM576.92,128.85h2.7c2.16,0,5.08-.23,7.09-2.23.85-.85,1.93-2.47,1.93-5.01,0-2.93-1.39-4.47-2.39-5.24-1.93-1.46-5.01-1.62-6.55-1.62h-2.77v14.1Z"/>
      <path class="cls-1" d="M636.56,128.85h25.5v.54c0,6.24-2.23,15.72-7.94,21.65-5.7,5.93-12.25,7.01-18.34,7.01s-12.79-1-18.8-7.16c-3-3.08-7.55-9.32-7.55-19.57,0-8.4,3.08-15.1,7.4-19.49,6.32-6.55,14.1-7.47,20.18-7.47,4.24,0,9.63.69,14.41,3.85,3.47,2.31,6.47,5.93,8.32,9.17l-10.71,5.78c-1-2-2.54-4.08-4.54-5.55-2.31-1.7-4.93-2.47-7.86-2.47-4.7,0-8.17,1.54-10.63,4.16-2.85,3-4.39,7.4-4.39,12.17,0,5.86,2.16,9.63,4.31,11.79,3,3.08,6.47,4.01,10.4,4.01,5.08,0,7.78-1.77,8.94-2.77.38-.31,2.7-2.31,3.7-6.09h-12.4v-9.55Z"/>
      <path class="cls-1" d="M699.97,115.52h-17.18v9.94h16.33v10.01h-16.33v11.4h17.18v10.02h-29.04v-51.39h29.04v10.02Z"/>
    </g>
  </g>
</svg>