<?xml version="1.0" encoding="UTF-8"?>
<svg id="Layer_2" data-name="Layer 2" xmlns="http://www.w3.org/2000/svg" viewBox="0 0 699.97 242.67">
  <defs>
    <style>
      .cls-1 {
        fill: #fff;
      }

      .cls-2, .cls-3 {
        fill: #fc6a03;
      }

      .cls-3 {
        opacity: .1;
      }
    </style>
  </defs>
  <path class="cls-3" d="M426.17,107.54c-7.99,18.2-19.13,33.41-31.72,44.48-12.02,10.6-25.39,17.4-38.65,19.44,7.63,5.61,16.97,9.56,27.43,11.75-8.15,9.16-20.03,14.93-33.25,14.93-21.47,0-39.4-15.22-43.58-35.44-.61-2.92-.93-5.97-.93-9.07,0-19.44,12.47-35.98,29.85-42.03,4.59-1.6,9.52-2.47,14.66-2.47,1.05,0,2.1.03,3.13.12,10.82.73,20.6,5.37,27.91,12.52h.02c9.59-10.46,15.97-25.15,18.5-42.09,3.57-23.93-.52-52.36-13.94-79.68-8.89,27.63-24.58,50.08-42.65,64.88-9.94,8.16-20.6,13.99-31.26,17.07-1.98-1.86-4.03-3.67-6.18-5.46-7.72-6.46-16.4-12.37-25.96-17.46.34,20.81-3.48,40.24-10.22,56.88-.03.02-.03.04-.03.07-.79,1.66-1.51,3.36-2.19,5.08-.03.04-.05.09-.06.13-3.94,10.06-6.1,21-6.1,32.44,0,3.91.25,7.77.75,11.53,5.65,43.73,43.02,77.5,88.28,77.5,39.55,0,73.07-25.78,84.67-61.45,2.83-8.68,4.36-17.96,4.36-27.58,0-16.86-4.69-32.65-12.85-46.1Z"/>
  <g>
    <path class="cls-1" d="M178.16,177.37c1.13,0,3.71.06,5.35,1.61,1.35,1.29,1.51,3.05,1.51,3.97,0,.82-.13,1.76-.69,2.68-.53.88-1.26,1.32-1.76,1.54,1.01.16,2.14.66,2.9,1.42.69.69,1.35,1.89,1.35,3.75,0,2.11-.82,3.43-1.64,4.25-1.73,1.67-4.25,1.8-5.54,1.8h-7.9v-21h6.42ZM176.52,185.9h.79c.66,0,1.76-.09,2.46-.6.44-.32.85-.95.85-1.86s-.44-1.48-.82-1.76c-.69-.53-1.64-.53-2.52-.53h-.76v4.75ZM176.52,194.59h1.17c1.23,0,2.71-.03,3.59-.85.44-.41.69-1.01.69-1.76,0-.85-.35-1.42-.66-1.7-.85-.79-2.49-.79-3.46-.79h-1.32v5.1Z"/>
    <path class="cls-1" d="M194.09,188.58l-7.53-11.21h5.73l4.22,6.52,4.22-6.52h5.73l-7.53,11.21v9.79h-4.85v-9.79Z"/>
    <path class="cls-2" d="M226.2,186.91h10.42v.22c0,2.55-.91,6.42-3.24,8.85s-5.01,2.86-7.49,2.86-5.23-.41-7.68-2.93c-1.23-1.26-3.09-3.81-3.09-8,0-3.43,1.26-6.17,3.02-7.96,2.58-2.68,5.76-3.05,8.25-3.05,1.73,0,3.93.28,5.89,1.57,1.42.94,2.65,2.42,3.4,3.75l-4.38,2.36c-.41-.82-1.04-1.67-1.86-2.27-.95-.69-2.02-1.01-3.21-1.01-1.92,0-3.34.63-4.35,1.7-1.16,1.23-1.79,3.02-1.79,4.97,0,2.39.88,3.94,1.76,4.82,1.23,1.26,2.65,1.64,4.25,1.64,2.08,0,3.18-.72,3.65-1.13.16-.13,1.1-.95,1.51-2.49h-5.07v-3.9Z"/>
    <path class="cls-2" d="M257.99,189.81c0,2.02-.25,4.5-2.33,6.64-2.02,2.08-4.35,2.39-6.55,2.39s-4.53-.32-6.55-2.39c-2.08-2.14-2.33-4.63-2.33-6.64v-12.44h4.85v12.31c0,.91.06,2.46,1.1,3.53.85.91,2.02,1.1,2.93,1.1s2.08-.19,2.93-1.1c1.04-1.07,1.1-2.61,1.1-3.53v-12.31h4.85v12.44Z"/>
    <path class="cls-2" d="M267.53,177.37v21h-4.85v-21h4.85Z"/>
    <path class="cls-2" d="M277.06,177.37v16.91h6.52v4.09h-11.37v-21h4.85Z"/>
    <path class="cls-2" d="M292.96,177.37c2.77,0,5.7.41,8.28,2.9,1.86,1.8,3.02,4.25,3.02,7.53s-1.13,5.7-2.86,7.43c-2.9,2.93-6.52,3.15-8.28,3.15h-6.8v-21h6.64ZM291.17,194.28h1.29c1.01,0,3.21-.09,4.78-1.42,1.13-.94,2.05-2.74,2.05-5.07s-.91-3.71-1.73-4.53c-1.57-1.58-3.62-1.8-5.1-1.8h-1.29v12.81Z"/>
    <path class="cls-2" d="M319.53,181.46h-6.8v4.06h6.3v4.09h-6.3v8.75h-4.85v-21h11.65v4.09Z"/>
    <path class="cls-2" d="M341.69,179.95c1.98,1.92,3.27,4.69,3.27,7.93,0,2.8-1.01,5.67-3.27,7.87-1.95,1.89-4.6,3.08-8.12,3.08-3.94,0-6.61-1.57-8.19-3.08-2.02-1.89-3.28-4.72-3.28-7.81s1.35-6.08,3.24-7.97c1.42-1.42,4.03-3.08,8.22-3.08,3.27,0,6.01,1.01,8.12,3.05ZM328.94,183.16c-.91.88-1.86,2.42-1.86,4.75,0,1.92.63,3.46,1.92,4.72,1.35,1.29,2.86,1.73,4.5,1.73,2.14,0,3.65-.79,4.66-1.79.82-.79,1.83-2.27,1.83-4.69,0-2.17-.88-3.78-1.83-4.72-1.04-1.01-2.71-1.8-4.63-1.8s-3.46.66-4.6,1.8Z"/>
    <path class="cls-2" d="M355.95,177.37c2.68,0,4.35.88,5.35,1.83.88.85,1.83,2.36,1.83,4.69,0,1.32-.28,2.96-1.64,4.28-.72.69-1.76,1.32-2.93,1.61l6.45,8.59h-5.92l-5.67-8.28v8.28h-4.85v-21h7.37ZM353.43,186.91h1.1c.88,0,2.08-.1,2.9-.91.35-.35.79-1.01.79-2.05,0-1.2-.57-1.83-.98-2.14-.79-.6-2.05-.66-2.68-.66h-1.13v5.76Z"/>
    <path class="cls-2" d="M377.79,186.91h10.42v.22c0,2.55-.91,6.42-3.24,8.85-2.33,2.42-5.01,2.86-7.49,2.86s-5.23-.41-7.68-2.93c-1.23-1.26-3.09-3.81-3.09-8,0-3.43,1.26-6.17,3.02-7.96,2.58-2.68,5.76-3.05,8.25-3.05,1.73,0,3.93.28,5.89,1.57,1.42.94,2.65,2.42,3.4,3.75l-4.38,2.36c-.41-.82-1.04-1.67-1.86-2.27-.95-.69-2.02-1.01-3.21-1.01-1.92,0-3.34.63-4.35,1.7-1.16,1.23-1.79,3.02-1.79,4.97,0,2.39.88,3.94,1.76,4.82,1.23,1.26,2.65,1.64,4.25,1.64,2.08,0,3.18-.72,3.65-1.13.16-.13,1.1-.95,1.51-2.49h-5.07v-3.9Z"/>
    <path class="cls-2" d="M396.77,177.37v21h-4.85v-21h4.85Z"/>
    <path class="cls-2" d="M401.46,198.37v-21h4.22l11.4,13.54v-13.54h4.85v21h-4.22l-11.4-13.6v13.6h-4.85Z"/>
    <path class="cls-2" d="M436.63,186.91h10.42v.22c0,2.55-.91,6.42-3.24,8.85s-5.01,2.86-7.49,2.86-5.23-.41-7.68-2.93c-1.23-1.26-3.09-3.81-3.09-8,0-3.43,1.26-6.17,3.02-7.96,2.58-2.68,5.76-3.05,8.25-3.05,1.73,0,3.93.28,5.89,1.57,1.42.94,2.65,2.42,3.4,3.75l-4.38,2.36c-.41-.82-1.04-1.67-1.86-2.27-.95-.69-2.02-1.01-3.21-1.01-1.92,0-3.34.63-4.35,1.7-1.16,1.23-1.79,3.02-1.79,4.97,0,2.39.88,3.94,1.76,4.82,1.23,1.26,2.65,1.64,4.25,1.64,2.08,0,3.18-.72,3.65-1.13.16-.13,1.1-.95,1.51-2.49h-5.07v-3.9Z"/>
    <path class="cls-2" d="M452.74,193.14c1.61,0,2.86,1.26,2.86,2.86s-1.26,2.86-2.86,2.86-2.86-1.26-2.86-2.86,1.26-2.86,2.86-2.86Z"/>
    <path class="cls-2" d="M474.59,197.71c-1.86.94-3.37,1.13-4.63,1.13-3.87,0-6.49-1.32-8.25-3.05-1.89-1.83-3.28-4.6-3.28-7.96s1.39-6.08,3.28-7.9c1.86-1.79,4.56-3.02,7.84-3.02,1.39,0,2.99.28,5.04,1.17v5.6c-1.07-1.13-2.68-2.24-4.91-2.24-1.76,0-3.18.57-4.28,1.64-1.17,1.13-1.98,2.83-1.98,4.85,0,2.17.88,3.71,1.83,4.63.44.44,1.95,1.76,4.53,1.76,1.26,0,2.96-.35,4.82-2.17v5.57Z"/>
    <path class="cls-2" d="M497.07,179.95c1.98,1.92,3.27,4.69,3.27,7.93,0,2.8-1.01,5.67-3.27,7.87-1.95,1.89-4.6,3.08-8.12,3.08-3.94,0-6.61-1.57-8.19-3.08-2.02-1.89-3.28-4.72-3.28-7.81s1.35-6.08,3.24-7.97c1.42-1.42,4.03-3.08,8.22-3.08,3.27,0,6.01,1.01,8.12,3.05ZM484.31,183.16c-.91.88-1.86,2.42-1.86,4.75,0,1.92.63,3.46,1.92,4.72,1.35,1.29,2.87,1.73,4.5,1.73,2.14,0,3.65-.79,4.66-1.79.82-.79,1.83-2.27,1.83-4.69,0-2.17-.88-3.78-1.83-4.72-1.04-1.01-2.71-1.8-4.63-1.8s-3.46.66-4.6,1.8Z"/>
    <path class="cls-2" d="M502.98,198.37l3.37-21h4.03l5.23,12.56,5.23-12.56h4.03l3.37,21h-4.85l-1.67-12.53-5.26,12.53h-1.7l-5.26-12.53-1.67,12.53h-4.85Z"/>
  </g>
  <g>
    <path class="cls-1" d="M23.04,115.52v41.37h-11.86v-41.37H0v-10.02h34.21v10.02h-11.17Z"/>
    <path class="cls-1" d="M52.31,125.08h20.49v-19.57h11.86v51.39h-11.86v-21.8h-20.49v21.8h-11.86v-51.39h11.86v19.57Z"/>
    <path class="cls-1" d="M124.97,115.52h-17.18v9.94h16.33v10.01h-16.33v11.4h17.18v10.02h-29.04v-51.39h29.04v10.02Z"/>
    <path class="cls-1" d="M170.58,115.52v41.37h-11.86v-41.37h-11.17v-10.02h34.21v10.02h-11.17Z"/>
    <path class="cls-1" d="M231.98,111.83c4.85,4.7,8.01,11.48,8.01,19.41,0,6.86-2.47,13.87-8.01,19.26-4.78,4.62-11.25,7.55-19.88,7.55-9.63,0-16.18-3.85-20.03-7.55-4.93-4.62-8.01-11.56-8.01-19.11s3.31-14.87,7.94-19.49c3.47-3.47,9.86-7.55,20.11-7.55,8.01,0,14.71,2.46,19.88,7.47ZM200.78,119.68c-2.23,2.16-4.55,5.93-4.55,11.63,0,4.7,1.54,8.47,4.7,11.56,3.31,3.16,7.01,4.24,11.02,4.24,5.24,0,8.94-1.93,11.4-4.39,2-1.93,4.47-5.55,4.47-11.48,0-5.32-2.16-9.24-4.47-11.56-2.54-2.47-6.63-4.39-11.33-4.39s-8.47,1.62-11.25,4.39Z"/>
    <path class="cls-1" d="M294.39,111.83c4.85,4.7,8.01,11.48,8.01,19.41,0,6.86-2.47,13.87-8.01,19.26-4.78,4.62-11.25,7.55-19.88,7.55-9.63,0-16.18-3.85-20.03-7.55-4.93-4.62-8.01-11.56-8.01-19.11s3.31-14.87,7.94-19.49c3.47-3.47,9.86-7.55,20.11-7.55,8.01,0,14.71,2.46,19.88,7.47ZM263.19,119.68c-2.23,2.16-4.55,5.93-4.55,11.63,0,4.7,1.54,8.47,4.7,11.56,3.31,3.16,7.01,4.24,11.02,4.24,5.24,0,8.94-1.93,11.4-4.39,2-1.93,4.47-5.55,4.47-11.48,0-5.32-2.16-9.24-4.47-11.56-2.54-2.47-6.63-4.39-11.33-4.39s-8.47,1.62-11.25,4.39Z"/>
    <path class="cls-1" d="M323.13,105.51v41.37h15.95v10.02h-27.81v-51.39h11.86Z"/>
    <path class="cls-1" d="M362.43,115.52v41.37h-11.86v-41.37h-11.17v-10.02h34.21v10.02h-11.17Z"/>
    <path class="cls-1" d="M391.94,105.51v51.39h-11.86v-51.39h11.86Z"/>
    <path class="cls-1" d="M421.52,105.51c4.47,0,9.4.62,13.48,4.24,4.39,3.85,5.01,8.94,5.01,12.48,0,6.47-2.46,10.09-4.39,12.1-4.08,4.16-9.48,4.55-13.1,4.55h-7.24v18.03h-11.86v-51.39h18.1ZM415.28,129.16h4.24c1.62,0,4.47-.08,6.39-1.93,1.08-1.08,1.93-2.85,1.93-5.08s-.77-3.93-1.93-5.01c-1.77-1.69-4.31-1.93-6.63-1.93h-4.01v13.94Z"/>
    <path class="cls-1" d="M493.94,115.52h-16.64v9.94h15.41v10.01h-15.41v21.42h-11.86v-51.39h28.51v10.02Z"/>
    <path class="cls-1" d="M548.18,111.83c4.85,4.7,8.01,11.48,8.01,19.41,0,6.86-2.47,13.87-8.01,19.26-4.78,4.62-11.25,7.55-19.88,7.55-9.63,0-16.18-3.85-20.03-7.55-4.93-4.62-8.01-11.56-8.01-19.11s3.31-14.87,7.94-19.49c3.47-3.47,9.86-7.55,20.11-7.55,8.01,0,14.71,2.46,19.88,7.47ZM516.98,119.68c-2.23,2.16-4.55,5.93-4.55,11.63,0,4.7,1.54,8.47,4.7,11.56,3.31,3.16,7.01,4.24,11.02,4.24,5.24,0,8.94-1.93,11.4-4.39,2-1.93,4.47-5.55,4.47-11.48,0-5.32-2.16-9.24-4.47-11.56-2.54-2.47-6.63-4.39-11.33-4.39s-8.47,1.62-11.25,4.39Z"/>
    <path class="cls-1" d="M583.09,105.51c6.55,0,10.63,2.16,13.1,4.47,2.16,2.08,4.47,5.78,4.47,11.48,0,3.24-.69,7.24-4.01,10.48-1.77,1.7-4.31,3.24-7.17,3.93l15.79,21.03h-14.48l-13.87-20.26v20.26h-11.86v-51.39h18.03ZM576.92,128.85h2.7c2.16,0,5.08-.23,7.09-2.23.85-.85,1.93-2.47,1.93-5.01,0-2.93-1.39-4.47-2.39-5.24-1.93-1.46-5.01-1.62-6.55-1.62h-2.77v14.1Z"/>
    <path class="cls-1" d="M636.56,128.85h25.5v.54c0,6.24-2.23,15.72-7.94,21.65-5.7,5.93-12.25,7.01-18.34,7.01s-12.79-1-18.8-7.16c-3-3.08-7.55-9.32-7.55-19.57,0-8.4,3.08-15.1,7.4-19.49,6.32-6.55,14.1-7.47,20.18-7.47,4.24,0,9.63.69,14.41,3.85,3.47,2.31,6.47,5.93,8.32,9.17l-10.71,5.78c-1-2-2.54-4.08-4.54-5.55-2.31-1.7-4.93-2.47-7.86-2.47-4.7,0-8.17,1.54-10.63,4.16-2.85,3-4.39,7.4-4.39,12.17,0,5.86,2.16,9.63,4.31,11.79,3,3.08,6.47,4.01,10.4,4.01,5.08,0,7.78-1.77,8.94-2.77.38-.31,2.7-2.31,3.7-6.09h-12.4v-9.55Z"/>
    <path class="cls-1" d="M699.97,115.52h-17.18v9.94h16.33v10.01h-16.33v11.4h17.18v10.02h-29.04v-51.39h29.04v10.02Z"/>
  </g>
</svg>